<svg xmlns="http://www.w3.org/2000/svg" viewBox="0 0 1000 1000"><defs><style>.cls-1{fill:#f4511e;}.cls-2{fill:#fff;}</style></defs><title>アセット 2</title><g id="レイヤー_2" data-name="レイヤー 2"><g id="レイヤー_2-2" data-name="レイヤー 2"><rect class="cls-1" width="1000" height="1000"/><path class="cls-2" d="M67,92.2l9.2-2.4q8.4,27.6,18,66.2l-9.4,2.2Q74.2,115.8,67,92.2Zm153.4-9q-2,48.2-14.8,77.9t-38.7,46.3Q141,224,97,231l-1.8-9.2q31.6-5.2,52.4-14.5a95.18,95.18,0,0,0,34.7-25.9q13.9-16.6,20.3-40.2t8-58.4Zm-98,1.2,9.6-2.2q9.4,33,18,69.8l-9.6,2Q132.4,119.6,122.4,84.4Z"/><path class="cls-2" d="M314.4,84H447.6v9.2h-79V144H464v9H368.6v29.2q0,9.2.4,14.7a40.53,40.53,0,0,0,2,10.2,14.15,14.15,0,0,0,10.7,10.7,40.53,40.53,0,0,0,10.2,2q5.5.4,14.7.4,22.4,0,44.4-2l.4,9.2q-22.8,2-46,2-15.8,0-24.4-1.6a24.75,24.75,0,0,1-21-21q-1.6-8.6-1.6-24.4V153H298v-9h60.4V93.2h-44Z"/><path class="cls-2" d="M560.8,165.6v-87h10v87ZM667,78.6h10.2v49.8q0,49.8-21.5,74.3T583.8,235l-2-9.2q47-7.6,66.1-29.6T667,128.4Z"/><path class="cls-2" d="M922.6,229a291.88,291.88,0,0,1-49.2,4q-36.2,0-52.5-8.3t-16.3-26.3q0-31.6,62.4-48.4-2.8-11.4-7.9-15.8T846,129.8q-13.4,0-29.1,12t-31.9,35l-7.6-5A414,414,0,0,0,819,98.6H777.6V90.4h45q6.8-16.8,9.8-25.6l9,2.4q-6.8,18-9,23.2H921v8.2H828.8q-8.4,19.2-20.2,40.8l.2.2q20.8-18.2,38.6-18.2,11.2,0,18.1,6.2t10.5,20q20.6-4.8,47.8-8.4l1,8.4q-25.2,3.4-47,8.6,2.8,15.6,2.8,42.8H871q0-25.6-2.4-40.6-54.2,15-54.2,39.2a23.26,23.26,0,0,0,2.1,10.3q2.1,4.3,7.9,8.3t18.1,6.1q12.3,2.1,30.9,2.1a294.86,294.86,0,0,0,48.2-4Z"/><path class="cls-2" d="M61.6,337.2q57.8-15.8,87.8-15.8,74.6,0,74.6,62.6,0,36-32,55T98.4,458l-.6-9.4q116,0,116-64,0-27.2-16-40.4T148.6,331q-28.2,0-84.8,15.4Z"/><path class="cls-2" d="M296.4,334.4v-8.8h38.2q5.4-16.2,9.6-31.4l8.8,1.6q-3.8,13.4-9,29.8h40v8.8H341.2a1064.78,1064.78,0,0,1-40.4,102.2l-8.4-3.4a1035.28,1035.28,0,0,0,39.4-98.8Zm170.4,4a301.63,301.63,0,0,0-44.4-3.8v78.6q20,9.8,45,29.2l-5.8,6.8A318.18,318.18,0,0,0,422.4,423v1.4q0,22-9.4,31t-32.2,9q-19,0-29.7-8.5t-10.7-23.5q0-14.4,10.5-22.4t29.9-8q15,0,32.2,7V325.6q31,0,55,4ZM413,418.2q-16.8-7.6-32.2-7.6-31,0-31,21.8,0,11.2,8.1,17.4t22.9,6.2q18.6,0,25.4-6.7t6.8-24.9Z"/><path class="cls-2" d="M540.6,387a314.31,314.31,0,0,1,10.2-81l9.4,1.4q-9.8,36.4-9.8,79.6t9.8,79.6l-9.4,1.4A314.31,314.31,0,0,1,540.6,387Zm48-43h65.8V304.4h9.2V344h40.8v8.6H663.6v32.8q0,22-2,35.2a59.31,59.31,0,0,1-8,22.8A40.7,40.7,0,0,1,638,458.1q-9.6,5.1-26.2,9.5L609,459q10.2-2.8,16.3-5.1a58.22,58.22,0,0,0,11.8-6.1,28.23,28.23,0,0,0,8.6-8.5,50.17,50.17,0,0,0,5.1-12.4,86.21,86.21,0,0,0,2.9-17.4q.7-9.7.7-24.1V352.6H588.6ZM670,293.8l7.4-3.2q9.8,17.4,16,30.6L686,324Q678.2,307.8,670,293.8Zm40.4,27q-7-15-16.4-31l7.4-3.2q10,17.4,16.4,31.4Z"/><path class="cls-2" d="M819.4,401.4q0-25.6,18-45.2t50.2-29.6v-.4q-56,2.4-111.2,2.4v-9q78.8,0,161-4l.4,9q-50.8,4.2-79.5,24.8t-28.7,51.4q0,24.4,16.4,38.6t44,14.2a154.36,154.36,0,0,0,25.4-2l1.2,9a171.51,171.51,0,0,1-27,2.2q-32.4,0-51.3-16.6T819.4,401.4Z"/><path class="cls-2" d="M97.8,691.4q-13.2,0-26.5-15.4T58,643.6q0-16,19.3-28.4T128,602q2-13.4,6.2-52.4h-62V541h71.6v8.6q-3.8,34.8-6.4,52.6a193.71,193.71,0,0,1,51.4,9q.8-14.6.8-54.2H199q0,34.2-1.2,57.6a190.6,190.6,0,0,1,35,17.4l-4.4,7.8A191,191,0,0,0,197.2,624a210.66,210.66,0,0,1-4.2,30.9,62,62,0,0,1-8.3,20.4,51.2,51.2,0,0,1-12,13.1,120,120,0,0,1-17.9,10.4l-4.8-8q13.8-6.8,20.6-13.1T182,658q4.6-13.4,6.2-37.4a182.93,182.93,0,0,0-52-9.6q-5,32.8-11,50.8T113,685.6A21.42,21.42,0,0,1,97.8,691.4Zm28.8-80.6q-26.6.8-42.8,10.6T67.6,643.6q0,13,10.4,25.7T97.8,682q8.8,0,15.6-15.4T126.6,610.8Z"/><path class="cls-2" d="M370.8,536.6q-22,52-37.8,92l.4.2q16.8-24.4,36.6-24.4,11.6,0,17.8,10.9t10,31.7q3.8,20,8.4,29.5t13.2,9.5q22.8,0,38-56l8.6,2.4q-16.6,62.2-46.8,62.2-12.6,0-19.1-11.2t-10.9-33.8q-3.8-18.8-8-27.8t-12-9q-15.8,0-30.5,19.2t-32.1,64l-8.4-3.2q29.4-76.2,64-159.2Z"/><path class="cls-2" d="M534.4,565.4v-8.8h38.2q5.4-16.2,9.6-31.4l8.8,1.6q-3.8,13.4-9,29.8h40v8.8H579.2a1064.76,1064.76,0,0,1-40.4,102.2l-8.4-3.4a1035.57,1035.57,0,0,0,39.4-98.8Zm170.4,4a301.75,301.75,0,0,0-44.4-3.8v78.6q20,9.8,45,29.2l-5.8,6.8A318.18,318.18,0,0,0,660.4,654v1.4q0,22-9.4,31t-32.2,9q-19,0-29.7-8.5t-10.7-23.5q0-14.4,10.5-22.4t29.9-8q15,0,32.2,7V556.6q31,0,55,4ZM651,649.2q-16.8-7.6-32.2-7.6-31,0-31,21.8,0,11.2,8.1,17.4t22.9,6.2q18.6,0,25.4-6.7t6.8-24.9Z"/><path class="cls-2" d="M778.6,578.6V570h40.8q5-20.2,9.2-43.2l9,1q-4,23-8.6,42.2h32.9a54.14,54.14,0,0,1,10,1,54.91,54.91,0,0,1,7.5,1.8,12.67,12.67,0,0,1,4.8,3.8,15.06,15.06,0,0,1,3.3,5.5,79.78,79.78,0,0,1,1.6,8.6,78.32,78.32,0,0,1,.9,11.4v15.5q0,36.2-8.6,56t-21,19.8q-15.4,0-39.8-11.6l3.4-8.4Q846.6,684,859,684q3.6,0,7.2-4.1a44.41,44.41,0,0,0,6.9-11.9q3.3-7.8,5.3-21.2a206.26,206.26,0,0,0,2-30.2V603.9a83.21,83.21,0,0,0-.6-9.2q-.6-5.3-.9-7a10.27,10.27,0,0,0-2.5-4.3q-2.2-2.6-3.5-3a54.58,54.58,0,0,0-5.7-1.1,48.62,48.62,0,0,0-7.4-.7h-33q-16.2,62.8-41.6,115.8l-8.6-3.6a622.54,622.54,0,0,0,40.6-112.2Zm110-41,7.8-4.2q8.2,12.6,19.2,33l-7.8,4Q897.6,551.2,888.6,537.6Zm50,119.6a574.1,574.1,0,0,0-37.6-76l8.4-4a535,535,0,0,1,38,77ZM915,529.6l7.8-4.4q11.4,17.6,20,33.8l-7.8,4Q924.4,543.8,915,529.6Z"/><path class="cls-2" d="M162.4,921.6q24-4.4,37.3-17.1A41.34,41.34,0,0,0,213,873.4q0-14.6-8-24.9t-22.8-15.3q-13,39.6-38.3,63.4T94.4,920.4q-14.4,0-22.6-9t-8.2-24.8A54.45,54.45,0,0,1,77.4,850q13.8-16,37.2-23.8V793.6H70.4v-8.2h44.2V758.6H124v26.8h91.6v8.2H124v30a123.45,123.45,0,0,1,29.4-3.2q32.2,0,50.6,14.2t18.4,38.8q0,21.8-15.4,36.9t-42.4,20.1Zm-47.8-86q-19.2,7.2-30.4,20.5T73,886q0,12.4,5.7,19T95,911.6a46,46,0,0,0,19.6-4.8Zm59-4.8a107.41,107.41,0,0,0-20.2-1.8,113.13,113.13,0,0,0-29.4,3.6v69q15.2-10,28.4-28.3A155.55,155.55,0,0,0,173.6,830.8Z"/><path class="cls-2" d="M299.6,799.2q57.8-15.8,87.8-15.8,74.6,0,74.6,62.6,0,36-32,55t-93.6,19l-.6-9.4q116,0,116-64,0-27.2-16-40.4T386.6,793q-28.2,0-84.8,15.4Z"/><path class="cls-2" d="M637.6,759v24.4H694V792H637.6v31.4h50V832h-50v45q22,11.6,51.8,36.8l-6,6.8q-26-22.4-45.8-33.6-.2,22-9.7,31.5T597,928q-19,0-30.2-9.1t-11.2-24.3a28.8,28.8,0,0,1,1.8-10.2,29.37,29.37,0,0,1,6-9.4q4.2-4.6,12.8-7.4a67.7,67.7,0,0,1,20.8-2.8q14,0,31.4,7.8V832h-78v-8.6h78V792H544v-8.6h84.4V759Zm-9.2,123q-17.4-8.6-30.8-8.6-32.2,0-32.2,21.2,0,11.4,8.5,18.1t23.1,6.7q17.6,0,24.5-7.6t6.9-26.8Z"/><path class="cls-2" d="M827.4,834.2l.2.2q25.8-7.8,45.2-7.8,28.6,0,43.5,11t14.9,31.8q0,27.6-19.1,42.3t-55.5,14.7q-55.4,0-55.4-30,0-10.8,10.8-18.4t31.2-7.6q41,0,41,27.2,0,8.4-4.8,18.2Q921,908,921,870.4q0-17.4-12.7-26.5t-37.7-9.1q-41.6,0-86.8,27.2l-4-7L895,780.8v-.4H794.4V772H911.8l1,8.4Zm42,83q6-11.4,6-18.8,0-19.8-32.6-19.8-15.4,0-23.7,5.3t-8.3,12.5q0,21.4,45.8,21.4Q863.4,917.8,869.4,917.2Z"/></g></g></svg>